<svg id="visual" viewBox="0 0 900 600" width="900" height="600" xmlns="http://www.w3.org/2000/svg" xmlns:xlink="http://www.w3.org/1999/xlink" version="1.1">
    <path
        d="M0 395L8.3 399.3C16.7 403.7 33.3 412.3 50 420.7C66.7 429 83.3 437 100 438.3C116.7 439.7 133.3 434.3 150 433.8C166.7 433.3 183.3 437.7 200 440.2C216.7 442.7 233.3 443.3 250 436.7C266.7 430 283.3 416 300 408C316.7 400 333.3 398 350 403.8C366.7 409.7 383.3 423.3 400 428.7C416.7 434 433.3 431 450 421.8C466.7 412.7 483.3 397.3 500 399.3C516.7 401.3 533.3 420.7 550 430.7C566.7 440.7 583.3 441.3 600 437.7C616.7 434 633.3 426 650 420.3C666.7 414.7 683.3 411.3 700 406.2C716.7 401 733.3 394 750 397.5C766.7 401 783.3 415 800 416.8C816.7 418.7 833.3 408.3 850 401.7C866.7 395 883.3 392 891.7 390.5L900 389L900 601L891.7 601C883.3 601 866.7 601 850 601C833.3 601 816.7 601 800 601C783.3 601 766.7 601 750 601C733.3 601 716.7 601 700 601C683.3 601 666.7 601 650 601C633.3 601 616.7 601 600 601C583.3 601 566.7 601 550 601C533.3 601 516.7 601 500 601C483.3 601 466.7 601 450 601C433.3 601 416.7 601 400 601C383.3 601 366.7 601 350 601C333.3 601 316.7 601 300 601C283.3 601 266.7 601 250 601C233.3 601 216.7 601 200 601C183.3 601 166.7 601 150 601C133.3 601 116.7 601 100 601C83.3 601 66.7 601 50 601C33.3 601 16.7 601 8.3 601L0 601Z"
        fill="#013a4d" fill-opacity="0.2"></path>
    <path
        d="M0 458L8.3 457C16.7 456 33.3 454 50 453.3C66.7 452.7 83.3 453.3 100 453.7C116.7 454 133.3 454 150 454.8C166.7 455.7 183.3 457.3 200 463.7C216.7 470 233.3 481 250 481.5C266.7 482 283.3 472 300 471.2C316.7 470.3 333.3 478.7 350 477.5C366.7 476.3 383.3 465.7 400 467.2C416.7 468.7 433.3 482.3 450 484.5C466.7 486.7 483.3 477.3 500 476C516.7 474.7 533.3 481.3 550 483.5C566.7 485.7 583.3 483.3 600 479.2C616.7 475 633.3 469 650 466.8C666.7 464.7 683.3 466.3 700 471.5C716.7 476.7 733.3 485.3 750 489.3C766.7 493.3 783.3 492.7 800 486.3C816.7 480 833.3 468 850 466.3C866.7 464.7 883.3 473.3 891.7 477.7L900 482L900 601L891.7 601C883.3 601 866.7 601 850 601C833.3 601 816.7 601 800 601C783.3 601 766.7 601 750 601C733.3 601 716.7 601 700 601C683.3 601 666.7 601 650 601C633.3 601 616.7 601 600 601C583.3 601 566.7 601 550 601C533.3 601 516.7 601 500 601C483.3 601 466.7 601 450 601C433.3 601 416.7 601 400 601C383.3 601 366.7 601 350 601C333.3 601 316.7 601 300 601C283.3 601 266.7 601 250 601C233.3 601 216.7 601 200 601C183.3 601 166.7 601 150 601C133.3 601 116.7 601 100 601C83.3 601 66.7 601 50 601C33.3 601 16.7 601 8.3 601L0 601Z"
        fill="#00676f" fill-opacity="0.2"></path>
    <path
        d="M0 512L8.3 513.5C16.7 515 33.3 518 50 521.3C66.7 524.7 83.3 528.3 100 524.7C116.7 521 133.3 510 150 510.2C166.7 510.3 183.3 521.7 200 523.5C216.7 525.3 233.3 517.7 250 516.8C266.7 516 283.3 522 300 520.8C316.7 519.7 333.3 511.3 350 508.5C366.7 505.7 383.3 508.3 400 511C416.7 513.7 433.3 516.3 450 515.5C466.7 514.7 483.3 510.3 500 511C516.7 511.7 533.3 517.3 550 520.2C566.7 523 583.3 523 600 521C616.7 519 633.3 515 650 515.7C666.7 516.3 683.3 521.7 700 523.8C716.7 526 733.3 525 750 525.3C766.7 525.7 783.3 527.3 800 527C816.7 526.7 833.3 524.3 850 524.7C866.7 525 883.3 528 891.7 529.5L900 531L900 601L891.7 601C883.3 601 866.7 601 850 601C833.3 601 816.7 601 800 601C783.3 601 766.7 601 750 601C733.3 601 716.7 601 700 601C683.3 601 666.7 601 650 601C633.3 601 616.7 601 600 601C583.3 601 566.7 601 550 601C533.3 601 516.7 601 500 601C483.3 601 466.7 601 450 601C433.3 601 416.7 601 400 601C383.3 601 366.7 601 350 601C333.3 601 316.7 601 300 601C283.3 601 266.7 601 250 601C233.3 601 216.7 601 200 601C183.3 601 166.7 601 150 601C133.3 601 116.7 601 100 601C83.3 601 66.7 601 50 601C33.3 601 16.7 601 8.3 601L0 601Z"
        fill="#007e76" fill-opacity="0.2"></path>
    <path
        d="M0 537L8.3 540.2C16.7 543.3 33.3 549.7 50 552.8C66.7 556 83.3 556 100 552.7C116.7 549.3 133.3 542.7 150 542.7C166.7 542.7 183.3 549.3 200 548.5C216.7 547.7 233.3 539.3 250 536.7C266.7 534 283.3 537 300 541.3C316.7 545.7 333.3 551.3 350 553.2C366.7 555 383.3 553 400 553.7C416.7 554.3 433.3 557.7 450 554.3C466.7 551 483.3 541 500 536.5C516.7 532 533.3 533 550 538C566.7 543 583.3 552 600 552.3C616.7 552.7 633.3 544.3 650 542.7C666.7 541 683.3 546 700 547.3C716.7 548.7 733.3 546.3 750 544.7C766.7 543 783.3 542 800 542.8C816.7 543.7 833.3 546.3 850 548.8C866.7 551.3 883.3 553.7 891.7 554.8L900 556L900 601L891.7 601C883.3 601 866.7 601 850 601C833.3 601 816.7 601 800 601C783.3 601 766.7 601 750 601C733.3 601 716.7 601 700 601C683.3 601 666.7 601 650 601C633.3 601 616.7 601 600 601C583.3 601 566.7 601 550 601C533.3 601 516.7 601 500 601C483.3 601 466.7 601 450 601C433.3 601 416.7 601 400 601C383.3 601 366.7 601 350 601C333.3 601 316.7 601 300 601C283.3 601 266.7 601 250 601C233.3 601 216.7 601 200 601C183.3 601 166.7 601 150 601C133.3 601 116.7 601 100 601C83.3 601 66.7 601 50 601C33.3 601 16.7 601 8.3 601L0 601Z"
        fill="#009473" fill-opacity="0.2"></path>
</svg>
